:SAMPLES-PER-SECOND 30
:FRAME-RANGE 1-663
:FULLY-SPECIFIED
:DEGREES
208
root  -11.8202 37.5598 135.086 -164.446 15.1807 -179.793
RightUpLeg  -21.3395 -9.12187 -0.889892
RightLeg  20.2276 -5.20671 -2.15446
RightFoot  -13.1329 -0.0289747 3.84149
RightToes  -3.4386e-010 1.2921e-014 -6.02303e-014
Spine  16.6905 -0.54372 4.04166
Spine1  2.45657 -0.573913 1.00825
HEad  11.6499 -6.28134 -6.45718
LeftShoulder1  2.96501 -7.86377 -20.3741
LeftArm  3.41195 -12.0026 -49.6573
LeftForeArm  -2.6303 -29.5245 -6.55748
LeftHand  0.0765329 -1.90951 -1.05649
RightShoulder  2.06079 5.21213 17.7011
RightArm  -21.1554 25.3959 55.662
RightForeArm  25.2568 14.0842 4.81596
RightHand  -0.304785 4.57946 -3.83527
LeftUpLeg  -36.3985 4.21421 3.51294
LeftLeg  42.1285 2.21637 2.53819
LeftFoot  -8.46167 0.348005 -11.8013
LeftToes  -7.12384e-010 -7.51861e-011 -8.34901e-011
209
root  -12.0253 37.5599 134.477 -164.725 15.9778 -179.929
RightUpLeg  -19.9902 -7.10603 -2.13398
RightLeg  19.7952 -6.3824 -2.63508
RightFoot  -13.4961 0.00404355 5.08126
RightToes  -3.4386e-010 1.2921e-014 -6.02303e-014
Spine  14.6127 -0.656821 3.39003
Spine1  3.16791 -0.768203 0.818934
HEad  11.533 -7.15033 -6.13663
LeftShoulder1  2.79513 -7.31202 -20.138
LeftArm  3.47497 -10.7714 -49.1207
LeftForeArm  -2.38962 -30.3996 -6.76439
LeftHand  0.0981753 -1.64858 -1.4782
RightShoulder  2.0788 4.98098 18.6665
RightArm  -19.3653 24.0723 55.9479
RightForeArm  24.1117 14.9719 5.08882
RightHand  -0.321101 3.91353 -4.27019
LeftUpLeg  -36.406 3.25946 6.12309
LeftLeg  39.2256 4.78073 4.54879
LeftFoot  -8.92972 0.279837 -10.7352
LeftToes  -7.12384e-010 -7.51861e-011 -8.34901e-011
210
root  -12.263 37.5184 133.845 -164.872 17.0446 -179.903
RightUpLeg  -18.9682 -7.21063 -3.02697
RightLeg  19.5491 -5.25856 -2.19826
RightFoot  -13.9281 0.0315834 5.58122
RightToes  -3.4386e-010 1.2921e-014 -6.02303e-014
Spine  12.5634 -0.765018 2.99153
Spine1  4.17385 -0.82668 0.180543
HEad  10.56 -8.10381 -5.5882
LeftShoulder1  2.6435 -7.03629 -19.3163
LeftArm  2.63682 -9.42326 -48.7892
LeftForeArm  -1.83037 -31.5867 -7.03939
LeftHand  0.127131 -1.03809 -2.20686
RightShoulder  2.1218 4.86283 19.6267
RightArm  -17.6799 23.1523 56.2032
RightForeArm  23.1672 15.5987 5.27397
RightHand  -0.311218 3.7328 -4.21734
LeftUpLeg  -36.2798 1.92313 9.41101
LeftLeg  34.9407 7.37432 5.86356
LeftFoot  -8.43578 0.298712 -9.7717
LeftToes  -7.12384e-010 -7.51861e-011 -8.34901e-011
211
root  -12.5318 37.4449 133.167 -165.15 18.289 -179.877
RightUpLeg  -17.8503 -6.5457 -4.11278
RightLeg  19.4808 -4.69459 -2.03352
RightFoot  -14.5936 0.0833828 6.42075
RightToes  -3.4386e-010 1.2921e-014 -6.02303e-014
Spine  10.5299 -1.03295 2.80268
Spine1  5.59667 -0.793056 -1.27063
HEad  8.86037 -9.30093 -4.67484
LeftShoulder1  2.4578 -6.52555 -18.7113
LeftArm  2.96032 -9.56633 -47.999
LeftForeArm  -2.26863 -31.4292 -7.02214
LeftHand  0.108936 -1.59044 -1.67571
RightShoulder  2.20528 4.84754 20.7817
RightArm  -15.9343 22.6399 56.4577
RightForeArm  22.0915 15.8773 5.52047
RightHand  -0.322902 3.50178 -4.46384
LeftUpLeg  -35.2731 0.530091 13.0811
LeftLeg  28.8403 8.98955 5.6627
LeftFoot  -8.17857 0.29997 -9.07976
LeftToes  -7.12384e-010 -7.51861e-011 -8.34901e-011
212
root  -12.8704 37.2729 132.428 -165.431 19.7015 -179.531
RightUpLeg  -16.9809 -5.30756 -5.13614
RightLeg  20.1918 -4.38481 -1.99916
RightFoot  -15.586 0.178454 7.66161
RightToes  -3.4386e-010 1.2921e-014 -6.02303e-014
Spine  9.09088 -1.14329 2.80996
Spine1  6.36501 -0.670128 -2.31406
HEad  7.21045 -11.3854 -3.96269
LeftShoulder1  2.25222 -5.70939 -18.6921
LeftArm  3.10838 -9.31304 -46.8352
LeftForeArm  -2.26947 -32.5167 -7.30864
LeftHand  0.134942 -1.5049 -2.14448
RightShoulder  2.27318 4.88257 21.5475
RightArm  -14.3397 21.9647 56.6989
RightForeArm  21.3107 16.1102 5.72104
RightHand  -0.332307 3.488 -4.59272
LeftUpLeg  -33.9736 -0.684407 17.0643
LeftLeg  22.4643 9.36397 4.55578
LeftFoot  -8.48666 0.262317 -8.4789
LeftToes  -7.12384e-010 -7.51861e-011 -8.34901e-011
213
root  -13.2589 37.077 131.611 -165.79 20.924 -179.092
RightUpLeg  -15.8667 -4.8395 -6.15594
RightLeg  20.8052 -3.50077 -1.68407
RightFoot  -16.5833 0.277652 8.51255
RightToes  -3.4386e-010 1.2921e-014 -6.02303e-014
Spine  8.45076 -1.27404 2.51937
Spine1  6.08476 -0.688175 -2.85437
HEad  5.85701 -13.8994 -3.41099
LeftShoulder1  2.15705 -5.54799 -18.0219
LeftArm  2.27739 -7.71212 -46.5583
LeftForeArm  -1.53353 -33.9526 -7.65826
LeftHand  0.13714 -1.23975 -2.29557
RightShoulder  2.30479 4.92039 21.8227
RightArm  -12.8662 20.8343 56.9485
RightForeArm  20.267 16.13 5.98513
RightHand  -0.334849 3.25138 -4.7364
LeftUpLeg  -32.6283 -1.57416 20.6669
LeftLeg  16.4668 9.03032 3.63302
LeftFoot  -9.11268 0.211339 -8.05252
LeftToes  -7.12384e-010 -7.51861e-011 -8.34901e-011
214
root  -13.6795 36.8588 130.739 -166.168 22.3903 -178.592
RightUpLeg  -14.6806 -4.57953 -7.26759
RightLeg  21.299 -2.1633 -1.1448
RightFoot  -17.4902 0.41369 9.89401
RightToes  -3.4386e-010 1.2921e-014 -6.02303e-014
Spine  7.53499 -1.22048 1.85171
Spine1  6.39914 -0.503635 -3.3238
HEad  4.42905 -17.2745 -2.55908
LeftShoulder1  2.05074 -5.14453 -17.9185
LeftArm  2.24383 -6.9515 -46.2521
LeftForeArm  -0.985931 -35.0701 -7.94118
LeftHand  0.132133 -1.07578 -2.30308
RightShoulder  2.29245 4.8683 21.8512
RightArm  -11.7104 19.8054 57.1288
RightForeArm  19.2383 16.0761 6.22169
RightHand  -0.340671 3.1769 -4.85127
LeftUpLeg  -30.9114 4.45826 19.557
LeftLeg  10.3388 0.891684 4.19684
LeftFoot  -10.5581 0.122806 -8.71611
LeftToes  -7.12384e-010 -7.51861e-011 -8.34901e-011
215
root  -14.1599 36.5838 129.799 -166.29 23.5295 -178.075
RightUpLeg  -13.6965 -3.9148 -8.49871
RightLeg  21.8705 -1.46556 -0.861838
RightFoot  -18.4575 0.572929 11.2014
RightToes  -3.4386e-010 1.2921e-014 -6.02303e-014
Spine  6.18722 -1.29452 1.06302
Spine1  6.89744 -0.497198 -3.67547
HEad  3.39413 -20.1344 -1.54443
LeftShoulder1  1.91219 -4.62959 -17.732
LeftArm  3.14626 -6.748 -45.783
LeftForeArm  -1.55783 -35.7898 -8.18126
LeftHand  0.129736 -0.923177 -2.3074
RightShoulder  2.28623 4.78409 22.0795
RightArm  -11.0526 18.7447 57.1183
RightForeArm  18.6213 16.0018 6.39234
RightHand  -0.336574 3.17613 -4.79618
LeftUpLeg  -30.3628 9.72727 18.9331
LeftLeg  6.1893 -5.00212 4.70649
LeftFoot  -11.5603 0.052219 -8.84054
LeftToes  -7.12384e-010 -7.51861e-011 -8.34901e-011
